<mxfile host="app.diagrams.net" modified="2020-09-26T14:12:15.710Z" agent="5.0 (Windows NT 10.0; Win64; x64) AppleWebKit/537.36 (KHTML, like Gecko) Chrome/85.0.4183.121 Safari/537.36" etag="A0xBz230BFUW-OP8293G" version="13.7.5" type="github">
  <diagram id="8SR1Iy4nXiZJtPofzKMc" name="Page-1">
    <mxGraphModel dx="1021" dy="484" grid="1" gridSize="10" guides="1" tooltips="1" connect="1" arrows="1" fold="1" page="1" pageScale="1" pageWidth="827" pageHeight="1169" math="0" shadow="0">
      <root>
        <mxCell id="0" />
        <mxCell id="1" parent="0" />
        <mxCell id="7ipgbiRnS6gTCFLItmmk-39" style="edgeStyle=none;rounded=0;orthogonalLoop=1;jettySize=auto;html=1;entryX=0.5;entryY=0;entryDx=0;entryDy=0;endArrow=none;endFill=0;fontSize=20;" edge="1" parent="1" source="ZE8Bcb7x3ZMZPoK_6l7J-5" target="ZE8Bcb7x3ZMZPoK_6l7J-14">
          <mxGeometry relative="1" as="geometry" />
        </mxCell>
        <mxCell id="7ipgbiRnS6gTCFLItmmk-8" value="&lt;font style=&quot;font-size: 12px&quot;&gt;2..&lt;/font&gt;*" style="text;html=1;strokeColor=none;fillColor=none;align=center;verticalAlign=middle;whiteSpace=wrap;rounded=0;fontSize=20;" vertex="1" parent="1">
          <mxGeometry x="264" y="372" width="40" height="20" as="geometry" />
        </mxCell>
        <mxCell id="7ipgbiRnS6gTCFLItmmk-9" value="&lt;font style=&quot;font-size: 20px&quot;&gt;*&lt;/font&gt;" style="text;html=1;strokeColor=none;fillColor=none;align=center;verticalAlign=middle;whiteSpace=wrap;rounded=0;fontSize=20;" vertex="1" parent="1">
          <mxGeometry x="370" y="373" width="40" height="20" as="geometry" />
        </mxCell>
        <mxCell id="7ipgbiRnS6gTCFLItmmk-22" style="edgeStyle=orthogonalEdgeStyle;rounded=0;orthogonalLoop=1;jettySize=auto;html=1;entryX=0.5;entryY=0;entryDx=0;entryDy=0;endArrow=block;endFill=0;fontSize=20;exitX=0.507;exitY=1;exitDx=0;exitDy=0;exitPerimeter=0;" edge="1" parent="1" source="7ipgbiRnS6gTCFLItmmk-13" target="7ipgbiRnS6gTCFLItmmk-19">
          <mxGeometry relative="1" as="geometry">
            <mxPoint x="462" y="792" as="sourcePoint" />
          </mxGeometry>
        </mxCell>
        <mxCell id="7ipgbiRnS6gTCFLItmmk-24" style="edgeStyle=orthogonalEdgeStyle;rounded=0;orthogonalLoop=1;jettySize=auto;html=1;exitX=0.5;exitY=1;exitDx=0;exitDy=0;entryX=0.5;entryY=0;entryDx=0;entryDy=0;endArrow=block;endFill=0;fontSize=20;" edge="1" parent="1" source="7ipgbiRnS6gTCFLItmmk-14" target="7ipgbiRnS6gTCFLItmmk-19">
          <mxGeometry relative="1" as="geometry" />
        </mxCell>
        <mxCell id="7ipgbiRnS6gTCFLItmmk-25" value="&lt;font style=&quot;font-size: 12px&quot;&gt;{Overlapping, complete}&lt;/font&gt;" style="text;html=1;strokeColor=none;fillColor=none;align=center;verticalAlign=middle;whiteSpace=wrap;rounded=0;fontSize=20;" vertex="1" parent="1">
          <mxGeometry x="270" y="769" width="140" height="20" as="geometry" />
        </mxCell>
        <mxCell id="7ipgbiRnS6gTCFLItmmk-43" style="edgeStyle=none;rounded=0;orthogonalLoop=1;jettySize=auto;html=1;exitX=1;exitY=0;exitDx=0;exitDy=0;endArrow=none;endFill=0;fontSize=20;entryX=0;entryY=0.5;entryDx=0;entryDy=0;" edge="1" parent="1" source="7ipgbiRnS6gTCFLItmmk-14" target="7ipgbiRnS6gTCFLItmmk-10">
          <mxGeometry relative="1" as="geometry" />
        </mxCell>
        <mxCell id="7ipgbiRnS6gTCFLItmmk-28" style="edgeStyle=none;rounded=0;orthogonalLoop=1;jettySize=auto;html=1;exitX=1;exitY=0.5;exitDx=0;exitDy=0;entryX=0.002;entryY=0;entryDx=0;entryDy=0;entryPerimeter=0;endArrow=none;endFill=0;fontSize=20;" edge="1" parent="1" source="ZE8Bcb7x3ZMZPoK_6l7J-3" target="ZE8Bcb7x3ZMZPoK_6l7J-8">
          <mxGeometry relative="1" as="geometry" />
        </mxCell>
        <mxCell id="7ipgbiRnS6gTCFLItmmk-29" style="edgeStyle=none;rounded=0;orthogonalLoop=1;jettySize=auto;html=1;entryX=0.5;entryY=0;entryDx=0;entryDy=0;endArrow=none;endFill=0;fontSize=20;" edge="1" parent="1" source="ZE8Bcb7x3ZMZPoK_6l7J-14" target="7ipgbiRnS6gTCFLItmmk-11">
          <mxGeometry relative="1" as="geometry" />
        </mxCell>
        <mxCell id="7ipgbiRnS6gTCFLItmmk-31" value="&lt;span style=&quot;font-size: 12px&quot;&gt;1..1&lt;/span&gt;" style="text;html=1;strokeColor=none;fillColor=none;align=center;verticalAlign=middle;whiteSpace=wrap;rounded=0;fontSize=20;" vertex="1" parent="1">
          <mxGeometry x="470" y="662" width="40" height="20" as="geometry" />
        </mxCell>
        <mxCell id="7ipgbiRnS6gTCFLItmmk-32" value="&lt;span&gt;&lt;font style=&quot;font-size: 20px&quot;&gt;*&lt;/font&gt;&lt;/span&gt;" style="text;html=1;strokeColor=none;fillColor=none;align=center;verticalAlign=middle;whiteSpace=wrap;rounded=0;fontSize=20;" vertex="1" parent="1">
          <mxGeometry x="464" y="619" width="40" height="20" as="geometry" />
        </mxCell>
        <mxCell id="7ipgbiRnS6gTCFLItmmk-36" style="edgeStyle=none;rounded=0;orthogonalLoop=1;jettySize=auto;html=1;exitX=0;exitY=0.5;exitDx=0;exitDy=0;entryX=0.989;entryY=1.004;entryDx=0;entryDy=0;entryPerimeter=0;endArrow=none;endFill=0;fontSize=20;" edge="1" parent="1" source="ZE8Bcb7x3ZMZPoK_6l7J-18" target="ZE8Bcb7x3ZMZPoK_6l7J-11">
          <mxGeometry relative="1" as="geometry" />
        </mxCell>
        <mxCell id="7ipgbiRnS6gTCFLItmmk-37" value="&lt;font style=&quot;font-size: 12px&quot;&gt;1..1&lt;/font&gt;" style="text;html=1;strokeColor=none;fillColor=none;align=center;verticalAlign=middle;whiteSpace=wrap;rounded=0;fontSize=20;" vertex="1" parent="1">
          <mxGeometry x="266" y="551" width="40" height="20" as="geometry" />
        </mxCell>
        <mxCell id="7ipgbiRnS6gTCFLItmmk-38" value="&lt;font style=&quot;font-size: 20px&quot;&gt;*&lt;/font&gt;" style="text;html=1;strokeColor=none;fillColor=none;align=center;verticalAlign=middle;whiteSpace=wrap;rounded=0;fontSize=20;" vertex="1" parent="1">
          <mxGeometry x="369" y="559" width="40" height="20" as="geometry" />
        </mxCell>
        <mxCell id="7ipgbiRnS6gTCFLItmmk-40" value="&lt;font style=&quot;font-size: 20px&quot;&gt;*&lt;/font&gt;" style="text;html=1;strokeColor=none;fillColor=none;align=center;verticalAlign=middle;whiteSpace=wrap;rounded=0;fontSize=20;" vertex="1" parent="1">
          <mxGeometry x="464" y="489" width="40" height="20" as="geometry" />
        </mxCell>
        <mxCell id="7ipgbiRnS6gTCFLItmmk-41" value="&lt;font style=&quot;font-size: 20px&quot;&gt;*&lt;/font&gt;" style="text;html=1;strokeColor=none;fillColor=none;align=center;verticalAlign=middle;whiteSpace=wrap;rounded=0;fontSize=20;" vertex="1" parent="1">
          <mxGeometry x="465" y="436" width="40" height="20" as="geometry" />
        </mxCell>
        <mxCell id="7ipgbiRnS6gTCFLItmmk-44" value="&lt;font style=&quot;font-size: 20px&quot;&gt;*&lt;/font&gt;" style="text;html=1;strokeColor=none;fillColor=none;align=center;verticalAlign=middle;whiteSpace=wrap;rounded=0;fontSize=20;" vertex="1" parent="1">
          <mxGeometry x="250" y="695" width="40" height="20" as="geometry" />
        </mxCell>
        <mxCell id="7ipgbiRnS6gTCFLItmmk-45" value="&lt;span style=&quot;font-size: 12px&quot;&gt;0..1&lt;/span&gt;" style="text;html=1;strokeColor=none;fillColor=none;align=center;verticalAlign=middle;whiteSpace=wrap;rounded=0;fontSize=20;" vertex="1" parent="1">
          <mxGeometry x="370" y="613" width="40" height="20" as="geometry" />
        </mxCell>
        <mxCell id="7ipgbiRnS6gTCFLItmmk-47" value="" style="endArrow=none;dashed=1;html=1;fontSize=20;" edge="1" parent="1">
          <mxGeometry width="50" height="50" relative="1" as="geometry">
            <mxPoint x="470" y="472" as="sourcePoint" />
            <mxPoint x="590" y="472" as="targetPoint" />
          </mxGeometry>
        </mxCell>
        <mxCell id="7ipgbiRnS6gTCFLItmmk-51" value="" style="endArrow=none;dashed=1;html=1;fontSize=20;" edge="1" parent="1">
          <mxGeometry width="50" height="50" relative="1" as="geometry">
            <mxPoint x="333.58" y="321" as="sourcePoint" />
            <mxPoint x="333.58" y="408" as="targetPoint" />
          </mxGeometry>
        </mxCell>
        <mxCell id="ZE8Bcb7x3ZMZPoK_6l7J-1" value="Ingredient" style="swimlane;fontStyle=0;childLayout=stackLayout;horizontal=1;startSize=26;fillColor=none;horizontalStack=0;resizeParent=1;resizeParentMax=0;resizeLast=0;collapsible=1;marginBottom=0;" parent="1" vertex="1">
          <mxGeometry x="130" y="342" width="140" height="104" as="geometry" />
        </mxCell>
        <mxCell id="ZE8Bcb7x3ZMZPoK_6l7J-2" value="name" style="text;strokeColor=none;fillColor=none;align=left;verticalAlign=top;spacingLeft=4;spacingRight=4;overflow=hidden;rotatable=0;points=[[0,0.5],[1,0.5]];portConstraint=eastwest;" parent="ZE8Bcb7x3ZMZPoK_6l7J-1" vertex="1">
          <mxGeometry y="26" width="140" height="26" as="geometry" />
        </mxCell>
        <mxCell id="ZE8Bcb7x3ZMZPoK_6l7J-3" value="measuring unit" style="text;strokeColor=none;fillColor=none;align=left;verticalAlign=top;spacingLeft=4;spacingRight=4;overflow=hidden;rotatable=0;points=[[0,0.5],[1,0.5]];portConstraint=eastwest;" parent="ZE8Bcb7x3ZMZPoK_6l7J-1" vertex="1">
          <mxGeometry y="52" width="140" height="26" as="geometry" />
        </mxCell>
        <mxCell id="ZE8Bcb7x3ZMZPoK_6l7J-4" value="stock" style="text;strokeColor=none;fillColor=none;align=left;verticalAlign=top;spacingLeft=4;spacingRight=4;overflow=hidden;rotatable=0;points=[[0,0.5],[1,0.5]];portConstraint=eastwest;" parent="ZE8Bcb7x3ZMZPoK_6l7J-1" vertex="1">
          <mxGeometry y="78" width="140" height="26" as="geometry" />
        </mxCell>
        <mxCell id="ZE8Bcb7x3ZMZPoK_6l7J-5" value="Dish" style="swimlane;fontStyle=0;childLayout=stackLayout;horizontal=1;startSize=26;fillColor=none;horizontalStack=0;resizeParent=1;resizeParentMax=0;resizeLast=0;collapsible=1;marginBottom=0;" parent="1" vertex="1">
          <mxGeometry x="400" y="355" width="140" height="78" as="geometry" />
        </mxCell>
        <mxCell id="ZE8Bcb7x3ZMZPoK_6l7J-7" value="id_number" style="text;strokeColor=none;fillColor=none;align=left;verticalAlign=top;spacingLeft=4;spacingRight=4;overflow=hidden;rotatable=0;points=[[0,0.5],[1,0.5]];portConstraint=eastwest;" parent="ZE8Bcb7x3ZMZPoK_6l7J-5" vertex="1">
          <mxGeometry y="26" width="140" height="26" as="geometry" />
        </mxCell>
        <mxCell id="ZE8Bcb7x3ZMZPoK_6l7J-8" value="name" style="text;strokeColor=none;fillColor=none;align=left;verticalAlign=top;spacingLeft=4;spacingRight=4;overflow=hidden;rotatable=0;points=[[0,0.5],[1,0.5]];portConstraint=eastwest;" parent="ZE8Bcb7x3ZMZPoK_6l7J-5" vertex="1">
          <mxGeometry y="52" width="140" height="26" as="geometry" />
        </mxCell>
        <mxCell id="7ipgbiRnS6gTCFLItmmk-48" value="" style="swimlane;fontStyle=0;childLayout=stackLayout;horizontal=1;startSize=26;fillColor=none;horizontalStack=0;resizeParent=1;resizeParentMax=0;resizeLast=0;collapsible=1;marginBottom=0;" vertex="1" parent="1">
          <mxGeometry x="587" y="446" width="140" height="52" as="geometry" />
        </mxCell>
        <mxCell id="7ipgbiRnS6gTCFLItmmk-49" value="times_served" style="text;strokeColor=none;fillColor=none;align=left;verticalAlign=top;spacingLeft=4;spacingRight=4;overflow=hidden;rotatable=0;points=[[0,0.5],[1,0.5]];portConstraint=eastwest;" vertex="1" parent="7ipgbiRnS6gTCFLItmmk-48">
          <mxGeometry y="26" width="140" height="26" as="geometry" />
        </mxCell>
        <mxCell id="7ipgbiRnS6gTCFLItmmk-52" value="" style="swimlane;fontStyle=0;childLayout=stackLayout;horizontal=1;startSize=26;fillColor=none;horizontalStack=0;resizeParent=1;resizeParentMax=0;resizeLast=0;collapsible=1;marginBottom=0;" vertex="1" parent="1">
          <mxGeometry x="287" y="269" width="96" height="52" as="geometry" />
        </mxCell>
        <mxCell id="7ipgbiRnS6gTCFLItmmk-53" value="amount" style="text;strokeColor=none;fillColor=none;align=left;verticalAlign=top;spacingLeft=4;spacingRight=4;overflow=hidden;rotatable=0;points=[[0,0.5],[1,0.5]];portConstraint=eastwest;" vertex="1" parent="7ipgbiRnS6gTCFLItmmk-52">
          <mxGeometry y="26" width="96" height="26" as="geometry" />
        </mxCell>
        <mxCell id="7ipgbiRnS6gTCFLItmmk-19" value="Person" style="swimlane;fontStyle=0;childLayout=stackLayout;horizontal=1;startSize=26;fillColor=none;horizontalStack=0;resizeParent=1;resizeParentMax=0;resizeLast=0;collapsible=1;marginBottom=0;" vertex="1" parent="1">
          <mxGeometry x="280" y="822" width="140" height="78" as="geometry" />
        </mxCell>
        <mxCell id="7ipgbiRnS6gTCFLItmmk-20" value="name" style="text;strokeColor=none;fillColor=none;align=left;verticalAlign=top;spacingLeft=4;spacingRight=4;overflow=hidden;rotatable=0;points=[[0,0.5],[1,0.5]];portConstraint=eastwest;" vertex="1" parent="7ipgbiRnS6gTCFLItmmk-19">
          <mxGeometry y="26" width="140" height="26" as="geometry" />
        </mxCell>
        <mxCell id="7ipgbiRnS6gTCFLItmmk-21" value="address" style="text;strokeColor=none;fillColor=none;align=left;verticalAlign=top;spacingLeft=4;spacingRight=4;overflow=hidden;rotatable=0;points=[[0,0.5],[1,0.5]];portConstraint=eastwest;" vertex="1" parent="7ipgbiRnS6gTCFLItmmk-19">
          <mxGeometry y="52" width="140" height="26" as="geometry" />
        </mxCell>
        <mxCell id="ZE8Bcb7x3ZMZPoK_6l7J-10" value="Table" style="swimlane;fontStyle=0;childLayout=stackLayout;horizontal=1;startSize=26;fillColor=none;horizontalStack=0;resizeParent=1;resizeParentMax=0;resizeLast=0;collapsible=1;marginBottom=0;" parent="1" vertex="1">
          <mxGeometry x="130" y="522" width="140" height="78" as="geometry" />
        </mxCell>
        <mxCell id="ZE8Bcb7x3ZMZPoK_6l7J-11" value="id_number" style="text;strokeColor=none;fillColor=none;align=left;verticalAlign=top;spacingLeft=4;spacingRight=4;overflow=hidden;rotatable=0;points=[[0,0.5],[1,0.5]];portConstraint=eastwest;" parent="ZE8Bcb7x3ZMZPoK_6l7J-10" vertex="1">
          <mxGeometry y="26" width="140" height="26" as="geometry" />
        </mxCell>
        <mxCell id="ZE8Bcb7x3ZMZPoK_6l7J-12" value="max_capability" style="text;strokeColor=none;fillColor=none;align=left;verticalAlign=top;spacingLeft=4;spacingRight=4;overflow=hidden;rotatable=0;points=[[0,0.5],[1,0.5]];portConstraint=eastwest;" parent="ZE8Bcb7x3ZMZPoK_6l7J-10" vertex="1">
          <mxGeometry y="52" width="140" height="26" as="geometry" />
        </mxCell>
        <mxCell id="7ipgbiRnS6gTCFLItmmk-14" value="Client" style="swimlane;fontStyle=0;childLayout=stackLayout;horizontal=1;startSize=26;fillColor=none;horizontalStack=0;resizeParent=1;resizeParentMax=0;resizeLast=0;collapsible=1;marginBottom=0;" vertex="1" parent="1">
          <mxGeometry x="130" y="715" width="140" height="52" as="geometry" />
        </mxCell>
        <mxCell id="7ipgbiRnS6gTCFLItmmk-15" value="tax_id_number" style="text;strokeColor=none;fillColor=none;align=left;verticalAlign=top;spacingLeft=4;spacingRight=4;overflow=hidden;rotatable=0;points=[[0,0.5],[1,0.5]];portConstraint=eastwest;" vertex="1" parent="7ipgbiRnS6gTCFLItmmk-14">
          <mxGeometry y="26" width="140" height="26" as="geometry" />
        </mxCell>
        <mxCell id="ZE8Bcb7x3ZMZPoK_6l7J-14" value="Meal" style="swimlane;fontStyle=0;childLayout=stackLayout;horizontal=1;startSize=26;fillColor=none;horizontalStack=0;resizeParent=1;resizeParentMax=0;resizeLast=0;collapsible=1;marginBottom=0;" parent="1" vertex="1">
          <mxGeometry x="400" y="509" width="140" height="104" as="geometry" />
        </mxCell>
        <mxCell id="ZE8Bcb7x3ZMZPoK_6l7J-15" value="date" style="text;strokeColor=none;fillColor=none;align=left;verticalAlign=top;spacingLeft=4;spacingRight=4;overflow=hidden;rotatable=0;points=[[0,0.5],[1,0.5]];portConstraint=eastwest;" parent="ZE8Bcb7x3ZMZPoK_6l7J-14" vertex="1">
          <mxGeometry y="26" width="140" height="26" as="geometry" />
        </mxCell>
        <mxCell id="ZE8Bcb7x3ZMZPoK_6l7J-18" value="start_time" style="text;strokeColor=none;fillColor=none;align=left;verticalAlign=top;spacingLeft=4;spacingRight=4;overflow=hidden;rotatable=0;points=[[0,0.5],[1,0.5]];portConstraint=eastwest;" parent="ZE8Bcb7x3ZMZPoK_6l7J-14" vertex="1">
          <mxGeometry y="52" width="140" height="26" as="geometry" />
        </mxCell>
        <mxCell id="7ipgbiRnS6gTCFLItmmk-10" value="end_time" style="text;strokeColor=none;fillColor=none;align=left;verticalAlign=top;spacingLeft=4;spacingRight=4;overflow=hidden;rotatable=0;points=[[0,0.5],[1,0.5]];portConstraint=eastwest;" vertex="1" parent="ZE8Bcb7x3ZMZPoK_6l7J-14">
          <mxGeometry y="78" width="140" height="26" as="geometry" />
        </mxCell>
        <mxCell id="7ipgbiRnS6gTCFLItmmk-11" value="Waiter" style="swimlane;fontStyle=0;childLayout=stackLayout;horizontal=1;startSize=26;fillColor=none;horizontalStack=0;resizeParent=1;resizeParentMax=0;resizeLast=0;collapsible=1;marginBottom=0;" vertex="1" parent="1">
          <mxGeometry x="400" y="689" width="140" height="78" as="geometry" />
        </mxCell>
        <mxCell id="7ipgbiRnS6gTCFLItmmk-12" value="id_number" style="text;strokeColor=none;fillColor=none;align=left;verticalAlign=top;spacingLeft=4;spacingRight=4;overflow=hidden;rotatable=0;points=[[0,0.5],[1,0.5]];portConstraint=eastwest;" vertex="1" parent="7ipgbiRnS6gTCFLItmmk-11">
          <mxGeometry y="26" width="140" height="26" as="geometry" />
        </mxCell>
        <mxCell id="7ipgbiRnS6gTCFLItmmk-13" value="phone_number" style="text;strokeColor=none;fillColor=none;align=left;verticalAlign=top;spacingLeft=4;spacingRight=4;overflow=hidden;rotatable=0;points=[[0,0.5],[1,0.5]];portConstraint=eastwest;" vertex="1" parent="7ipgbiRnS6gTCFLItmmk-11">
          <mxGeometry y="52" width="140" height="26" as="geometry" />
        </mxCell>
      </root>
    </mxGraphModel>
  </diagram>
</mxfile>
